<svg id="레이어_1" data-name="레이어 1" xmlns="http://www.w3.org/2000/svg" viewBox="0 0 43.08 41.86"><defs><style>.cls-1{fill:#00dbff;}.cls-2{fill:#231815;}</style></defs><path class="cls-1" d="M13.39,13.17c1.91-.8,2.09-3.43,1.73-5.46s-.9-4.39.42-6C17,0,20.05.4,21.59,2.09s1.9,4.15,1.89,6.44a4.94,4.94,0,0,0,.53,3,3.08,3.08,0,0,0,3.37.91,8.76,8.76,0,0,0,3.11-2c1.53-1.33,3.18-2.75,5.2-3s4.37,1.28,4.13,3.29a5.25,5.25,0,0,1-1.76,2.81,59.7,59.7,0,0,0-5.27,6.29,1.83,1.83,0,0,0-.49,1.36c.11.5.62.81,1.07,1.05,3.61,1.93,7.47,4.24,8.85,8.09a2.25,2.25,0,0,1,0,1.88c-.49.82-1.65.85-2.6.73a36.09,36.09,0,0,1-10.13-2.76c.41,2.55.8,5.24-.15,7.64s-3.8,4.24-6.15,3.16-2.83-4.15-2.63-6.71.73-5.34-.62-7.52a29.09,29.09,0,0,1-8.9,6.83c-2,1-4.87,1.47-5.93-.46a3.89,3.89,0,0,1-.22-2.59,12,12,0,0,1,5.28-7.89c-2.1-1.36-4.71-1.75-6.84-3.07S-.3,15.17,1.26,13.2a5.22,5.22,0,0,1,3.41-1.58c3.35-.52,7.45,1.77,8.72,1.55"/><path class="cls-2" d="M13.7,13.71c2.12-1,2.38-3.61,2.09-5.69-.32-2.37-1.39-6.86,2.44-6.8,3.4.06,4.51,3.73,4.61,6.54.08,2.35,0,5,3,5.38s5-2.52,7.19-4a4.76,4.76,0,0,1,4.31-.92c1.91.72,2.28,2.45,1,4-2,2.46-4.35,4.6-6.14,7.25s1.61,3.64,3.44,4.76a18.86,18.86,0,0,1,3.73,2.86c.9.92,3.24,3.7,2,4.86-.72.7-2.11.3-3,.16s-1.81-.33-2.7-.54a36.49,36.49,0,0,1-5.93-2,.64.64,0,0,0-.92.71c.42,2.57,1,5.72-.55,8.06-1.3,2-4.32,3.28-6.06,1-1.35-1.72-1.19-4.16-1-6.2.23-2.35.41-4.7-.79-6.82a.63.63,0,0,0-1-.13A29.32,29.32,0,0,1,14,31.1c-1.78,1.18-3.88,2.59-6.09,2.65-3,.1-2.63-3-1.85-5.1a11.52,11.52,0,0,1,4.45-5.53.64.64,0,0,0,0-1.08c-2.09-1.28-4.57-1.72-6.66-3C2.05,18,0,15,2.13,13.22c1.78-1.5,4.6-1.12,6.66-.58,1.41.38,3.11,1.31,4.6,1.15.79-.08.8-1.33,0-1.25a7.49,7.49,0,0,1-2.77-.66A20.07,20.07,0,0,0,6.81,11c-2.17-.25-5.18.19-6.35,2.29S.4,17.66,1.88,19.12c2.15,2.14,5.48,2.45,8,4V22a13,13,0,0,0-5,6.28c-.78,2.1-1.34,5.32,1.26,6.39,2.25.92,4.81-.33,6.74-1.43a30.27,30.27,0,0,0,7.56-6.15l-1-.12c1.66,2.93.22,6.36.56,9.51.25,2.18,1.24,4.52,3.53,5.18s4.7-.8,5.92-2.72c1.69-2.66,1.15-6.09.68-9l-.92.7a34.71,34.71,0,0,0,10.62,2.86,3,3,0,0,0,3-1.05c.71-1.19,0-2.78-.64-3.85-1.47-2.66-4.07-4.49-6.65-6a10.56,10.56,0,0,1-2-1.08c-1.08-1,.4-2.33,1.06-3.17,1.22-1.55,2.53-3,3.89-4.47a5.56,5.56,0,0,0,2-3.4A3.4,3.4,0,0,0,39,7.73c-2.45-1.93-5.4-.67-7.57,1-1.46,1.14-2.89,3-4.84,3.14-2.65.27-2.48-2.29-2.54-4.14C24,5,23.18,1.85,20.51.54,18-.7,14.84.21,14.2,3.13c-.59,2.7,2.13,7.91-1.13,9.5-.72.35-.09,1.43.63,1.08Z"/></svg>