<svg id="레이어_1" data-name="레이어 1" xmlns="http://www.w3.org/2000/svg" viewBox="0 0 40.25 36.72"><defs><style>.cls-1{fill:#ffda00;}.cls-2{fill:#231815;}</style></defs><path class="cls-1" d="M16.87,8.82c1.05,2.26-.13,5.09-2.15,6.56a11.75,11.75,0,0,1-7.13,1.81,11.94,11.94,0,0,0-4.88.49c-1.51.66-2.66,2.5-1.92,4,.59,1.17,2,1.57,3.31,1.78a31.19,31.19,0,0,0,8.3.21c.94,2.19-.21,4.64-.69,7s.5,5.54,2.87,5.49a4.45,4.45,0,0,0,3-1.86,27.74,27.74,0,0,0,3.9-5.77,4.89,4.89,0,0,1,1.56-2.11c1.89-1.14,4.08.89,5.27,2.75s3.07,4,5.12,3.24a3.93,3.93,0,0,0,2-2.68A11,11,0,0,0,32.85,19c1.53-2.34,6.08-1.77,6.69-4.5.44-1.92-1.77-3.44-3.73-3.66s-4.06.2-5.84-.65c-2.24-1.09-3.11-3.75-4.29-5.94S22-.25,19.78,1c-2.48,1.4-3.38,4-2.91,7.84"/><path class="cls-2" d="M16.27,9c1.52,3.71-2,6.62-5.29,7.31-3,.62-6.94-.65-9.5,1.43-1.93,1.57-2.1,4.4.25,5.65a11.78,11.78,0,0,0,4.32.93,32.08,32.08,0,0,0,6.35,0l-.6-.46c.88,2.36-.38,4.61-.75,6.93a6.45,6.45,0,0,0,.84,4.46,3.13,3.13,0,0,0,3.39,1.43c1.86-.44,3.17-2.34,4.24-3.77a26.78,26.78,0,0,0,1.8-2.73c.57-1,1.06-2.61,2.07-3.23,2.2-1.34,4.21,2.38,5.25,3.71s2.23,2.49,3.86,2.54,2.85-1.34,3.42-2.81a11.61,11.61,0,0,0-2.63-11.78c0,.25.07.5.1.76,1.52-2.13,5-1.49,6.42-3.82,1.61-2.68-1.55-5-3.92-5.27-2-.27-4.39.32-6.21-.94-1.52-1-2.25-3-3.05-4.56C25.46,2.37,22.84-1,19.77.29c-3.32,1.41-3.88,5.37-3.52,8.53.09.79,1.34.8,1.25,0a9,9,0,0,1,.62-5.3C19,1.8,20.81.69,22.64,1.77c3.26,2,3.3,6.5,6.41,8.6,1.64,1.11,3.6,1,5.48,1,1.56,0,5.21.79,4.34,3.18-.49,1.33-2.4,1.65-3.56,2.08a6,6,0,0,0-3,2,.64.64,0,0,0,.1.76,10.39,10.39,0,0,1,2.47,10.07,3.25,3.25,0,0,1-1.67,2.25,2.68,2.68,0,0,1-2.73-1c-1.22-1.18-1.93-2.77-3.18-3.93a4.4,4.4,0,0,0-3.43-1.44c-1.6.2-2.33,1.62-3,2.91-.95,1.83-5.3,9.72-7.87,6.26-1.15-1.55-.79-3.57-.33-5.28.52-1.94,1.06-3.89.34-5.85A.64.64,0,0,0,12.4,23a33,33,0,0,1-5.62.09C5.3,23,3.2,23,1.94,22.05c-1.69-1.27-.18-3.37,1.32-3.91s3.3-.3,4.93-.32c2.65-.05,5.51-.59,7.52-2.45a6.17,6.17,0,0,0,1.77-6.72c-.3-.73-1.51-.41-1.21.33Z"/></svg>