<svg id="레이어_1" data-name="레이어 1" xmlns="http://www.w3.org/2000/svg" viewBox="0 0 38.58 36.99"><defs><style>.cls-1{fill:#38ff00;}.cls-2{fill:#231815;}</style></defs><path class="cls-1" d="M13.24,10.11c1.28.44,4.73-7.5,8.08-9.09.89-.42,2.12-.69,2.74.09a2.4,2.4,0,0,1,.37,1.29L25,8.82c.13,1.34.33,2.83,1.38,3.66a6.12,6.12,0,0,0,2.84.88A13.45,13.45,0,0,1,37,17.82,3,3,0,0,1,38,19.77c0,1.61-2,2.29-3.62,2.53L26.4,23.5a21.44,21.44,0,0,1-.58,7.67c-.8,2.45-2.72,4.71-5.26,5.15a2.93,2.93,0,0,1-2-.28A3.65,3.65,0,0,1,17.24,34a23.47,23.47,0,0,1-1.1-8.85c.14-2,.43-4.35-1-5.76a6.47,6.47,0,0,0-3-1.34,55.44,55.44,0,0,1-9.42-3.56C1.6,13.9.26,12.83.72,11.63a2.56,2.56,0,0,1,1.86-1.27,22,22,0,0,1,10.66-.25"/><path class="cls-2" d="M13.07,10.71c1.58.34,3-2.58,3.64-3.58a37.74,37.74,0,0,1,2.65-3.62c.7-.81,2.33-2.66,3.6-2.27s1,2.64,1.08,3.63c.11,1.23.22,2.47.34,3.7.15,1.55.32,3.28,1.59,4.35s3.29,1,4.84,1.48a13,13,0,0,1,5.24,3.27c.85.87,1.91,2.19.62,3.18a5.64,5.64,0,0,1-2.5.85c-2.64.44-5.29.8-7.94,1.2a.61.61,0,0,0-.45.6c.17,3.86.32,8.59-3.1,11.2a5,5,0,0,1-2.47,1c-1.36.12-2-.77-2.37-1.93A21.84,21.84,0,0,1,16.71,27c0-2.9,1.09-6.94-2-8.72-1.49-.87-3.38-1.14-5-1.67a50.93,50.93,0,0,1-6.23-2.5c-.91-.43-3.06-1.56-1.75-2.72.76-.67,2.34-.78,3.31-.94a21.69,21.69,0,0,1,8,.25c.79.17,1.12-1,.34-1.2a23.28,23.28,0,0,0-7.85-.38c-1.62.21-4.6.4-5.38,2.19s1.1,3.12,2.46,3.78A52.76,52.76,0,0,0,9.81,18c2.21.71,5.29.92,5.75,3.69a14.48,14.48,0,0,1,0,3.29,25.22,25.22,0,0,0,.08,4.43c.24,2.06.54,4.82,1.87,6.52,1.13,1.45,3.12,1.27,4.64.59,5-2.23,5.11-8.35,4.91-13l-.46.6c2.56-.38,5.13-.76,7.7-1.16,1.43-.23,3.26-.65,4-2,.87-1.6-.4-3.16-1.49-4.25a14.41,14.41,0,0,0-5.09-3.26c-2.12-.79-5.17-.4-5.83-3.08S25.33,5,25.06,2.4C24.89.88,24.12-.18,22.46,0a6.24,6.24,0,0,0-3.7,2.27,36.63,36.63,0,0,0-3.13,4.2c-.43.65-.86,1.31-1.34,1.94-.2.27-.42.52-.65.78s-.39.26-.23.29c-.79-.17-1.12,1-.34,1.2Z"/></svg>