<svg id="레이어_1" data-name="레이어 1" xmlns="http://www.w3.org/2000/svg" viewBox="0 0 43.46 39"><defs><style>.cls-1{fill:#00dbff;}.cls-2{fill:#231815;}</style></defs><path class="cls-1" d="M15,14.72A5.72,5.72,0,0,0,18,11.33a18.87,18.87,0,0,0,.52-3.68C18.87,5,20.15,2.15,22.61,1s6,.34,6.19,3c.1,1.63-1,3.24-.61,4.83.42,1.76,2.45,2.66,4.26,2.7s3.61-.5,5.42-.4,3.8,1.15,4.05,2.94c.44,3.25-4.57,4.44-5.75,7.5-.77,2,.32,4.21,1.73,5.79s3.19,2.89,4.23,4.73,1,4.58-.76,5.72a4.44,4.44,0,0,1-3.47.3c-3.53-.91-6.09-3.85-8.75-6.35A2.72,2.72,0,0,0,27.69,31c-1.11-.11-1.86,1.05-2.47,2a12.21,12.21,0,0,1-10.48,5.35,4.18,4.18,0,0,1-2.6-.8A4.08,4.08,0,0,1,11,35.29a10,10,0,0,1,.42-6.08,8.25,8.25,0,0,0,.84-2.57c.12-2.48-2.74-3.93-5.16-4.47S1.73,21,.81,18.71C-.31,15.87,3,12.86,6,13s6.86,1.54,9,1.72"/><path class="cls-2" d="M15.28,15.26A6.6,6.6,0,0,0,19,10c.36-2.73.44-5.56,2.65-7.56,1.72-1.56,5-1.65,6.24.59s-1.27,4.73.17,7.05c1.09,1.76,3.41,2.25,5.34,2.13,2.28-.14,6.39-1.37,7.73,1.38,1,2-1.46,3.6-2.79,4.67s-2.9,2.54-3,4.52c-.14,2.52,1.59,4.6,3.27,6.25s4.23,3.9,3.54,6.72c-.84,3.47-5.25,1.67-7.2.37-2.21-1.48-3.76-3.72-5.91-5.23-2-1.39-3.34.36-4.43,1.91a11.6,11.6,0,0,1-6.32,4.46,10.32,10.32,0,0,1-3.91.4c-2.06-.21-2.78-1.76-3-3.64A9.56,9.56,0,0,1,12,29.38,6.65,6.65,0,0,0,12.8,26c-.31-2.23-2.52-3.5-4.46-4.14-2.2-.74-5.72-.76-6.86-3.19a3.29,3.29,0,0,1,1.17-3.86,5.24,5.24,0,0,1,4.1-1.14c2.79.28,5.43,1.37,8.21,1.65.8.08.8-1.17,0-1.25-4.59-.47-10.8-4-14.19,1a4.15,4.15,0,0,0,.92,5.76C3.57,22.3,6,22.37,8.17,23.14a5.32,5.32,0,0,1,3.19,2.34c.73,1.6-.63,3.31-1,4.83-.58,2.31-.63,5.89,1.34,7.62s5.43,1,7.59.28a12.91,12.91,0,0,0,6-4.36,16.85,16.85,0,0,1,1.27-1.74c.9-.9,1.67-.28,2.4.41,1.15,1.09,2.25,2.23,3.46,3.25,1.93,1.64,4.4,3.28,7,3.22a4,4,0,0,0,4-4.2c0-2.71-1.91-4.62-3.72-6.39-2.2-2.14-4.64-5.25-2-8,1.39-1.45,3.45-2.39,4.41-4.23a3.6,3.6,0,0,0-1.51-4.74C38,9.74,35,11.2,32.13,10.94c-1.6-.15-3.41-1-3.39-2.86,0-1.63,1-3.11.57-4.77C28.72,1.07,26.24-.15,24.06,0c-2.63.2-4.51,2.38-5.42,4.69a19.16,19.16,0,0,0-.88,4.81,5.48,5.48,0,0,1-3.11,4.67c-.73.34-.09,1.42.63,1.08Z"/></svg>