<svg id="레이어_1" data-name="레이어 1" xmlns="http://www.w3.org/2000/svg" viewBox="0 0 32.42 35.14"><defs><style>.cls-1{fill:#fff;}.cls-2{fill:#231815;}</style></defs><path class="cls-1" d="M13.18,3.15c-2.82,2.4-.13,7.9-2.92,10.33-2.32,2-6.5.1-8.73,2.23-1.6,1.53-1,4.45.72,5.84s4.16,1.56,6.36,1.28a2.16,2.16,0,0,1,1.67.22,2.11,2.11,0,0,1,.43,1.81c-.24,3.72.78,8.07,4.15,9.66,2.9-2.48,1.42-7.87,4.34-10.31C21,22.71,23.62,23,26,23.07s5.18-.72,5.75-3c.52-2.05-1.36-4.08-3.43-4.53s-4.19.23-6.19.9a57,57,0,0,1-1.41-8.61A15.94,15.94,0,0,0,20,3.6,4.53,4.53,0,0,0,17,.66C15.64.32,14.29,2,13.18,3.15"/><path class="cls-2" d="M12.74,2.71C10.4,4.88,11.47,8.24,10.89,11c-.87,4.15-5.63,2.23-8.5,3.42s-3,5-1,7.13a7,7,0,0,0,4.49,2,15.3,15.3,0,0,0,2.95-.08c1.59-.15,1.27,1.4,1.26,2.42,0,3.53,1.12,7.5,4.5,9.2a.63.63,0,0,0,.75-.1c2.39-2.19,2-5.57,3-8.36,1.6-4.2,6.35-2.45,9.76-3.09,2.84-.53,5.49-3,3.81-6-2.09-3.72-6.69-2.71-10-1.62l.77.43A57,57,0,0,1,21.4,8.81c-.21-2-.18-4.17-1.09-6A4.64,4.64,0,0,0,16.81,0c-1.72-.09-3,1.59-4.07,2.71-.55.59.33,1.47.88.88,1.05-1.12,2.4-3,4.09-2s2,3,2.22,4.73a81.37,81.37,0,0,0,1.55,10.29.63.63,0,0,0,.77.43c1.94-.64,4.16-1.44,6.21-.81,1.6.5,3.21,2.19,2.56,4-1.13,3.09-6,2-8.46,2.2A5.86,5.86,0,0,0,17,26.55c-.82,2.48-.54,5.63-2.6,7.53l.76-.1c-3.09-1.56-3.94-5.26-3.87-8.46,0-1.18.23-2.72-1.15-3.24a4.83,4.83,0,0,0-2.14,0,10.64,10.64,0,0,1-3-.13,4.43,4.43,0,0,1-3.8-3.7c-.22-2.1,1.44-3,3.3-3.2,2.63-.23,5.81.18,7.15-2.67s-.44-6.78,1.93-9c.59-.55-.29-1.43-.88-.88Z"/></svg>