<svg id="레이어_1" data-name="레이어 1" xmlns="http://www.w3.org/2000/svg" viewBox="0 0 43.05 38.09"><defs><style>.cls-1{fill:red;}.cls-2{fill:#231815;}</style></defs><path class="cls-1" d="M14.18,14.45c1.75-.06,2.13-6,2.87-9.32.33-1.51.76-3.17,2.05-4,2.28-1.5,5.35.72,6.31,3.27s.82,5.44,2,7.91a63.59,63.59,0,0,1,12.86.59,2.77,2.77,0,0,1,1.79.75,2.45,2.45,0,0,1,.29,2.06,8.81,8.81,0,0,1-7.91,6.86,23.54,23.54,0,0,1,4.17,14.79A10.18,10.18,0,0,1,27.84,31.8c-.49-1-1.07-2.36-2.21-2.35a2.62,2.62,0,0,0-1.76,1.11C21,33.81,17.41,37.5,13.1,36.93A3.43,3.43,0,0,1,11,36c-1.21-1.28-.6-3.38.27-4.91s2-3.18,1.61-4.89c-.55-2.39-3.54-3.14-6-3.39S1.51,22,.77,19.66c-.61-1.91.81-4,2.62-4.82a12.48,12.48,0,0,1,5.9-.64l4.89.25"/><path class="cls-2" d="M14.18,15.07c1.58-.19,2-2.13,2.32-3.42.56-2.39.74-4.86,1.36-7.24C18.24,3,19,1.24,20.76,1.25a4.7,4.7,0,0,1,3.56,2.37c1.68,2.61,1.28,6.15,2.53,9a.6.6,0,0,0,.54.31,65.78,65.78,0,0,1,7.16,0c1.11.06,2.22.16,3.33.28s2.9,0,3.6.89c1.18,1.45-.85,4.35-1.9,5.41a8.18,8.18,0,0,1-5.16,2.43.63.63,0,0,0-.54.94A23.34,23.34,0,0,1,38,37.34l.46-.6a9.56,9.56,0,0,1-7-1.67,9.07,9.07,0,0,1-2.54-2.66,20,20,0,0,0-1.5-2.68c-1.56-1.8-3.22-.41-4.46.95a20.82,20.82,0,0,1-5.64,4.82c-2.17,1.12-7.06,1.6-6.21-2.21.53-2.35,2.73-4.13,2.52-6.69-.38-4.63-6.5-3.93-9.6-5a3.53,3.53,0,0,1-2.71-2.49C1,17.43,2.47,15.87,4,15.28a12,12,0,0,1,4.91-.48c1.78.08,3.55.18,5.32.27.81,0,.8-1.21,0-1.25-3.13-.16-6.67-.79-9.75,0C2.22,14.38.05,16.19,0,18.64c-.1,5.48,7.61,4.05,10.73,5.83,3.45,2,.23,5.29-.65,7.78-.78,2.2-.18,4.54,2.28,5.17a8.55,8.55,0,0,0,6.81-1.6,21.38,21.38,0,0,0,3-2.58c.46-.45.9-.92,1.34-1.39s1.2-1.64,1.9-1.75c1.32-.2,2.13,2.68,2.74,3.52a10.88,10.88,0,0,0,10.57,4.32.62.62,0,0,0,.46-.6A24.54,24.54,0,0,0,35,22.23l-.54.95a9.53,9.53,0,0,0,6-2.8C41.88,19,43.27,16.62,43,14.52c-.3-2.57-3.69-2.42-5.62-2.62a64.48,64.48,0,0,0-10-.24l.54.31c-1.33-3-.81-6.7-2.83-9.42C23.75.72,21.15-.82,18.93.48S16.41,4.94,16,7.25c-.22,1.31-.41,2.62-.7,3.91-.12.51-.44,2.58-1.15,2.66s-.79,1.35,0,1.25Z"/></svg>