<svg id="레이어_1" data-name="레이어 1" xmlns="http://www.w3.org/2000/svg" viewBox="0 0 44 58.51"><defs><style>.cls-1{fill:#fff;}.cls-2{fill:#231815;}</style></defs><path class="cls-1" d="M20.38,2.75q0,7.41.08,14.83a10.44,10.44,0,0,1-.81,5,5.32,5.32,0,0,1-5.74,2.61c-1.4-.32-2.62-1.21-4-1.47-2.33-.43-4.59.93-6.49,2.35C1.86,27.24.23,28.9.67,30.76c.38,1.57,2.06,2.41,3.59,3a43,43,0,0,0,9.58,2.22,5.6,5.6,0,0,1,2.46.66c1.43.95,1.55,3,1.61,4.69a45.41,45.41,0,0,0,3.44,15.63c3.87,4.63,4.46-8.53,4.71-13.28.14-2.58-.12-5.19.38-7.72s2-5.09,4.4-5.94c2.21-.78,4.63,0,7,.17s5.23-.81,5.56-3.14c.29-2-1.53-3.68-3.45-4.2S36,22.59,34,22.49a3.23,3.23,0,0,1-2.17-.72A3.61,3.61,0,0,1,31.05,20q-1.74-7-3.5-13.93c-.47-1.86-1.05-3.9-2.65-5s-4.55-.3-4.52,1.63"/><path class="cls-2" d="M19.75,2.75c0,4,.05,7.91.07,11.86,0,3.35.78,8.24-3.09,9.77-1.77.71-3.27.08-4.91-.63a6.74,6.74,0,0,0-4.14-.56A11.86,11.86,0,0,0,.46,28.33C-.89,30.9,1,33,3.28,34a37.65,37.65,0,0,0,9.63,2.45c1.91.26,3.63.34,4.15,2.54a40.46,40.46,0,0,1,.42,5,45.86,45.86,0,0,0,2.28,10.47c.48,1.39,1.15,4.13,3.18,4,1.25-.08,1.84-1.49,2.19-2.5,1.24-3.58,1.3-7.68,1.51-11.43.17-3.24-.31-6.75.77-9.87A6.91,6.91,0,0,1,30.21,31c1.73-1,3.78-.66,5.67-.4,2.37.33,5.15.48,7-1.34s1.24-4.39-.61-5.88a7.24,7.24,0,0,0-4.14-1.43c-1.07-.07-2.14,0-3.21,0-.84,0-2,.08-2.65-.56s-.87-2.41-1.11-3.38l-.84-3.36q-.79-3.12-1.57-6.24c-.67-2.66-1.17-6.9-4.15-8.08-1.95-.76-4.73.16-4.86,2.49,0,.8,1.21.8,1.25,0,.07-1.28,1.73-1.66,2.76-1.44,1.47.32,2.24,1.9,2.69,3.19,1.07,3.13,1.68,6.49,2.49,9.7.42,1.68.85,3.36,1.27,5,.29,1.17.49,2.55,1.57,3.28a5.59,5.59,0,0,0,3.15.61c1.79,0,3.73-.22,5.43.5,1.33.56,2.75,1.91,2.36,3.51-.32,1.3-1.67,2-2.87,2.24-2.91.67-5.84-.91-8.76-.13-6,1.6-5.45,9.13-5.63,13.91A61.34,61.34,0,0,1,24.38,54c-.15.72-.49,3-1.4,3.26-.53.14-1-.54-1.21-.91a24.34,24.34,0,0,1-1.62-4.79,44.46,44.46,0,0,1-1.59-9.79c-.11-2.15-.13-4.89-2.41-5.93a15.1,15.1,0,0,0-4-.73,45.38,45.38,0,0,1-5.26-1.18,16.4,16.4,0,0,1-4.24-1.63c-1.8-1.15-1.63-3-.29-4.44a13,13,0,0,1,4.25-3c2.12-.93,3.75-.35,5.77.49a6.12,6.12,0,0,0,6.93-1.21c2.27-2.34,1.79-6.06,1.77-9Q21,8.93,21,2.75a.63.63,0,0,0-1.25,0Z"/></svg>