<svg id="레이어_1" data-name="레이어 1" xmlns="http://www.w3.org/2000/svg" viewBox="0 0 38.48 38.46"><defs><style>.cls-1{fill:#38ff00;}.cls-2{fill:#231815;}</style></defs><path class="cls-1" d="M13.44,2.55c-1.37,3-3.39,11.89-8.57,13-1.4.3-3.06.37-3.88,1.54-1.18,1.67.49,4,2.41,4.72s4.09.59,5.92,1.5a2.1,2.1,0,0,1,1,.94,2.87,2.87,0,0,1-.43,2.19,11.46,11.46,0,0,0-.39,8.7,4.24,4.24,0,0,0,1.69,2.35c1.47.84,3.37.07,4.63-1.05a9.63,9.63,0,0,0,3-4.91c.51-2.11.68-4.88,2.75-5.55,1.55-.49,3.17.7,4,2.1s1.18,3,2.07,4.41,2.66,2.41,4.13,1.71,1.76-2.6,1.87-4.21a11.18,11.18,0,0,0-.49-5.34,6.44,6.44,0,0,1-.93-2.46c0-2,2.52-2.79,4-4.09a5.14,5.14,0,0,0,.23-7.23A6.68,6.68,0,0,0,30.7,9.38,19.85,19.85,0,0,0,25,11.66l-3.47-6.5C20.61,3.52,19.64,1.79,18,1s-4.15-.22-4.54,1.6"/><path class="cls-2" d="M12.9,2.23c-1.26,2.81-2,5.82-3.54,8.51A9.18,9.18,0,0,1,6,14.48c-1.57.84-3.6.49-5,1.7A3.18,3.18,0,0,0,.81,20.6c1.33,1.77,3.35,2.13,5.41,2.49,1.1.19,3.74.42,3.54,2.09a7.87,7.87,0,0,1-.7,1.68,11.21,11.21,0,0,0-.59,2,11.94,11.94,0,0,0,.62,6.84c.75,1.76,2.17,3,4.16,2.68A7.5,7.5,0,0,0,18,34.85C19.24,33,19.45,31,20,29a3.12,3.12,0,0,1,1.7-2.4c1.6-.53,3,1.11,3.58,2.34,1,1.95,1.44,4.21,3.4,5.47a3.26,3.26,0,0,0,4.54-.67c1.13-1.56,1.12-4,1.11-5.84a9.08,9.08,0,0,0-.46-3c-.42-1.18-1.57-2.43-.73-3.67a9.47,9.47,0,0,1,2.66-2,6,6,0,0,0,2-2,5.93,5.93,0,0,0,0-5.58,6.25,6.25,0,0,0-5.26-2.93c-2.83-.15-5.45,1.19-7.88,2.47l.85.22C24.34,9.17,23.19,7,22,4.84A12,12,0,0,0,19.22,1c-2-1.57-5.58-1.45-6.38,1.37a.62.62,0,0,0,1.2.33A2.45,2.45,0,0,1,17,1.26a5.23,5.23,0,0,1,3,2.58c1.64,2.59,3,5.43,4.4,8.13a.64.64,0,0,0,.86.23c2.14-1.12,4.41-2.33,6.88-2.31,2.19,0,4.4,1.09,4.94,3.37a4.6,4.6,0,0,1-2.17,5c-1.16.77-2.65,1.51-3.16,2.91-.66,1.8.87,3.3,1.19,5a13.1,13.1,0,0,1,.09,3.37,7.67,7.67,0,0,1-.64,3.14,2,2,0,0,1-2.92.7,5.75,5.75,0,0,1-2.18-3c-.71-1.7-1.35-3.51-3-4.55a3.34,3.34,0,0,0-4.17.25C19,27.23,18.73,29,18.42,30.42a9.68,9.68,0,0,1-3,5.58,4.15,4.15,0,0,1-3.11,1.19c-1.48-.22-2.07-1.76-2.43-3a11,11,0,0,1,.45-7.09c.66-1.59,1.29-3.15-.53-4.21s-4.08-.87-6-1.59S-.1,17.51,2.88,16.6C4.52,16.1,6,16.08,7.46,15a11.59,11.59,0,0,0,3-3.62C12,8.67,12.72,5.68,14,2.86c.33-.73-.75-1.36-1.08-.63Z"/></svg>