<svg id="레이어_1" data-name="레이어 1" xmlns="http://www.w3.org/2000/svg" viewBox="0 0 42.4 41.39"><defs><style>.cls-1{fill:red;}.cls-2{fill:#231815;}</style></defs><path class="cls-1" d="M16.48,13.09c1.92-1.73,1.82-4.7,2.16-7.26S20.77.25,23.31.73s3.09,3.62,3,6.1-.18,5.49,1.94,6.78c3.24,2,7.67-2.48,11-.64,2,1.12,2.25,4.23.87,6.1s-3.84,2.65-6.16,2.78l4.58,4.6c1.43,1.44,2.93,3,3.27,5s-1.13,4.41-3.15,4.21c-1.75-.18-2.74-2-3.84-3.35S31.34,30,30.38,31.5a3.08,3.08,0,0,0-.4,1.34,18.44,18.44,0,0,1-1,4.9,4.79,4.79,0,0,1-3.68,3.06c-2.23.2-4.11-1.85-4.68-4s-.18-4.44-.09-6.67c0-1-.08-2.18-.94-2.67a2.48,2.48,0,0,0-.93-.26c-2.34-.27-4.64.58-6.87,1.33S7.12,30,4.85,29.34s-4.22-3-3.48-5.26c.84-2.55,4.15-3.08,6.84-3.16l-5-5.18c-1.8-1.87-3.66-4.8-2-6.77a4.37,4.37,0,0,1,3-1.25c3.84-.33,11.47,5.88,12.2,5.37"/><path class="cls-2" d="M16.92,13.53c2.77-2.7,1.46-6.76,3.06-9.95C20.78,2,22.71.37,24.37,2c1.27,1.23,1.34,3.38,1.29,5-.08,2.82,0,6.71,3.33,7.61,3.13.83,5.92-1.95,9-1.42,2.15.38,2.81,2.82,2.09,4.65-.94,2.39-3.8,3.23-6.13,3.39a.64.64,0,0,0-.44,1.07L37,25.83a24.64,24.64,0,0,1,3.22,3.55A4.31,4.31,0,0,1,41,33.22c-.55,1.5-2,2.38-3.43,1.37-1.82-1.28-2.41-3.61-4.73-4.29a2.81,2.81,0,0,0-2.4.24,3.62,3.62,0,0,0-1.16,2.75c-.33,2.54-1.23,7.8-5,6.8-3.31-.87-3.43-5-3.27-7.73.13-2,.72-5.09-1.86-5.72-2.78-.68-5.79.75-8.37,1.56-2.91.91-8.09,1.53-8.87-2.61-.64-3.41,4-4,6.33-4.05a.63.63,0,0,0,.44-1.07L4.5,16.16a11.76,11.76,0,0,1-3.08-4.28c-.71-2.19,1-3.5,3.05-3.55A7.36,7.36,0,0,1,7.28,9a42.9,42.9,0,0,1,6,3.27c.81.49,2.44,1.87,3.47,1.37.73-.35.1-1.43-.63-1.08.39-.19.19,0,0-.14s-.25-.12-.37-.18c-.41-.2-.8-.44-1.19-.68-1.07-.63-2.13-1.29-3.21-1.91C9.38,8.51,7,7.12,4.67,7.08c-3,0-5.5,2.18-4.4,5.3a11.81,11.81,0,0,0,2.85,4.14c1.54,1.62,3.1,3.23,4.65,4.84.14-.36.29-.71.44-1.07-2.31.09-5.18.37-6.73,2.31s-.77,4.79,1.16,6.3C5.35,31,9,30.12,11.92,29.13a20.52,20.52,0,0,1,5.31-1.35c1.07-.07,2.26-.11,2.58,1.14a10,10,0,0,1,0,3c-.2,3.07-.16,6.49,2.51,8.55a4.48,4.48,0,0,0,6.49-1.15,9.7,9.7,0,0,0,1.58-4.49,13.94,13.94,0,0,1,.37-2.51c.37-1.08,1.33-1.06,2.25-.63,2.33,1.08,3,4.72,6,4.63s4-3.74,3.14-6.09a12.09,12.09,0,0,0-2.86-3.94C37.63,24.64,36,23,34.38,21.4l-.44,1.07c3.75-.26,8.21-2.44,7.61-6.88a4.11,4.11,0,0,0-2.69-3.46c-1.71-.59-3.54,0-5.17.56-1.79.58-4.21,1.54-5.73-.11s-1.05-4.13-1-6.07c0-2.93-1.63-7.9-5.56-6.14-5,2.24-2,9-5.33,12.28-.58.56.3,1.44.88.88Z"/></svg>