<svg id="레이어_1" data-name="레이어 1" xmlns="http://www.w3.org/2000/svg" viewBox="0 0 41.44 40.5"><defs><style>.cls-1{fill:#ffd400;}.cls-2{fill:#231815;}</style></defs><path class="cls-1" d="M16.61,7.87c.16,1.85-.91,4.35-3,4.93s-4.37,0-6.58-.1S2.25,13.07,1.14,15c-1.35,2.29.16,5.25,2.12,7a14.82,14.82,0,0,0,6.88,3.53,6.35,6.35,0,0,1,2.91,1,4.79,4.79,0,0,1,1.27,2.11c1.49,3.95,2.55,8.56,6.15,10.75a2.81,2.81,0,0,0,1.73.51c1.18-.13,1.86-1.38,2.22-2.5a16.48,16.48,0,0,0,.77-5.67,9.75,9.75,0,0,1,.27-4.14c1-2.44,4.17-3.07,6.82-3.14s5.68-.07,7.44-2.06,1.21-5.63-.78-7.62-4.9-2.75-7.7-3a3,3,0,0,1-1.9-.62,2.65,2.65,0,0,1-.55-1c-.7-2-.81-4.21-1.66-6.17S24.32.26,22.23.69c-2.89.6-6.16,2.43-5.62,7.18"/><path class="cls-2" d="M16,7.87a4.73,4.73,0,0,1-.74,2.9c-.91,1.39-2.4,1.68-4,1.67-2.39,0-4.73-.69-7.11-.15a5.05,5.05,0,0,0-4,3.48,6.61,6.61,0,0,0,1.57,5.48,13.76,13.76,0,0,0,5.45,4,17.42,17.42,0,0,0,3.39,1,3.7,3.7,0,0,1,3.17,2.57c1.47,3.77,2.39,8.23,5.86,10.75C21.13,40.7,23,41,24.2,39.3s1.59-4.5,1.63-6.65a22.14,22.14,0,0,1,0-4.07,3.84,3.84,0,0,1,2.38-2.72c2.11-.92,4.44-.67,6.68-.86,1.91-.17,3.95-.63,5.28-2.13a5.72,5.72,0,0,0,1.05-5.3c-1.18-4.48-5.88-6-10-6.43a4.16,4.16,0,0,1-.86-.13c-.72-.23-.89-.77-1.12-1.43a20.84,20.84,0,0,1-.51-2.07,18,18,0,0,0-1.15-4c-.9-1.89-2.8-3.66-5-3.49a8.17,8.17,0,0,0-4.79,2.17A6.82,6.82,0,0,0,16,7.87c.07.79,1.32.8,1.25,0a5.59,5.59,0,0,1,1.64-5C20,1.9,22.07,1,23.59,1.35,26,2,26.85,4.66,27.32,6.79c.36,1.6.48,4.29,2.11,5.18a7,7,0,0,0,2.49.5,16.4,16.4,0,0,1,3.31.77,7.24,7.24,0,0,1,4.68,4.33A4.33,4.33,0,0,1,38,23c-1.84,1-4.07.82-6.08.91-3.33.15-7.09,1.31-7.44,5.16-.09,1.06.06,2.12.07,3.18a15.83,15.83,0,0,1-.47,4c-.23,1-.55,2.42-1.51,2.91-1.16.6-2.52-.62-3.29-1.41-2.79-2.86-3.1-6.94-4.87-10.34-1-1.85-2.68-2.06-4.53-2.51A14.14,14.14,0,0,1,3.7,21.57C2,20,.21,17.05,2,14.88,3.5,13,6.5,13.25,8.65,13.48s4.82.6,6.63-.9a5.74,5.74,0,0,0,2-4.71c0-.8-1.29-.81-1.25,0Z"/></svg>